<svg width="307" height="528" viewBox="0 0 307 528" fill="none" xmlns="http://www.w3.org/2000/svg">
<rect x="293" y="512" width="512" height="3" rx="1.5" transform="rotate(-90 293 512)" fill="#CCCCCC"/>
<circle cx="294.5" cy="255" r="10" fill="#CCCCCC"/>
<circle cx="294.5" cy="53" r="10" fill="#CCCCCC"/>
<circle cx="294.5" cy="154" r="10" fill="url(#paint0_linear_245_136)"/>
<circle cx="294.5" cy="356" r="10" fill="#CCCCCC"/>
<circle cx="294.5" cy="457" r="10" fill="#CCCCCC"/>
<path d="M296.232 525C295.462 526.333 293.538 526.333 292.768 525L285.84 513C285.07 511.667 286.032 510 287.572 510H301.428C302.968 510 303.93 511.667 303.16 513L296.232 525Z" fill="#CCCCCC"/>
<path d="M104.766 254.734C104.766 251.945 105.531 249.762 107.062 248.184C108.586 246.59 110.652 245.793 113.262 245.793C115.926 245.793 118.012 246.605 119.52 248.23C121.027 249.855 121.781 252.023 121.781 254.734C121.781 257.555 121.004 259.766 119.449 261.367C117.918 262.945 115.855 263.734 113.262 263.734C110.605 263.734 108.523 262.922 107.016 261.297C105.516 259.68 104.766 257.492 104.766 254.734ZM108.867 254.734C108.867 256.484 109.262 257.855 110.051 258.848C110.84 259.84 111.91 260.336 113.262 260.336C114.652 260.336 115.738 259.832 116.52 258.824C117.309 257.809 117.703 256.445 117.703 254.734C117.703 253.023 117.301 251.668 116.496 250.668C115.699 249.668 114.621 249.168 113.262 249.168C111.895 249.168 110.82 249.672 110.039 250.68C109.258 251.688 108.867 253.039 108.867 254.734ZM132.176 258.777H135.797C135.727 260.254 135.137 261.453 134.027 262.375C132.934 263.281 131.531 263.734 129.82 263.734C127.883 263.734 126.332 263.129 125.168 261.918C123.996 260.699 123.41 259.082 123.41 257.066C123.41 255.082 124.004 253.473 125.191 252.238C126.371 251.012 127.93 250.398 129.867 250.398C131.531 250.398 132.902 250.844 133.98 251.734C135.074 252.617 135.68 253.805 135.797 255.297H132.176C132.074 254.688 131.812 254.223 131.391 253.902C130.969 253.582 130.445 253.422 129.82 253.422C128.93 253.422 128.258 253.742 127.805 254.383C127.359 255.016 127.137 255.918 127.137 257.09C127.137 258.277 127.371 259.184 127.84 259.809C128.309 260.426 128.961 260.734 129.797 260.734C130.461 260.734 131 260.559 131.414 260.207C131.836 259.848 132.09 259.371 132.176 258.777ZM136.594 253.586V250.633H138.656V247.469L142.336 246.051V250.633H145.09V253.586H142.336V259.082C142.336 259.66 142.453 260.086 142.688 260.359C142.93 260.633 143.324 260.77 143.871 260.77C144.324 260.77 144.73 260.727 145.09 260.641V263.5C144.316 263.641 143.543 263.711 142.77 263.711C141.059 263.711 139.922 263.266 139.359 262.375C139.094 261.961 138.91 261.535 138.809 261.098C138.707 260.66 138.656 260.133 138.656 259.516V253.586H136.594ZM160.875 257.312H152.215V255.297H160.875V257.312ZM176.555 263.5H169.219V246.004H176.555C179.109 246.004 181.086 246.797 182.484 248.383C183.891 249.953 184.594 252.082 184.594 254.77C184.594 257.434 183.891 259.551 182.484 261.121C181.086 262.707 179.109 263.5 176.555 263.5ZM173.098 249.344V260.16H175.957C179.012 260.16 180.539 258.336 180.539 254.688C180.539 251.125 179.012 249.344 175.957 249.344H173.098ZM192.633 263.734C190.695 263.734 189.145 263.129 187.98 261.918C186.809 260.699 186.223 259.09 186.223 257.09C186.223 255.074 186.809 253.457 187.98 252.238C189.16 251.012 190.695 250.398 192.586 250.398C194.445 250.398 195.91 250.934 196.98 252.004C198.066 253.066 198.609 254.473 198.609 256.223C198.609 256.918 198.562 257.48 198.469 257.91H189.879C189.871 258.879 190.105 259.629 190.582 260.16C191.059 260.691 191.727 260.957 192.586 260.957C193.211 260.957 193.75 260.82 194.203 260.547C194.656 260.266 194.949 259.891 195.082 259.422H198.703C198.492 260.711 197.82 261.758 196.688 262.562C195.609 263.344 194.258 263.734 192.633 263.734ZM189.926 255.508H194.965C194.949 254.773 194.719 254.199 194.273 253.785C193.836 253.363 193.234 253.152 192.469 253.152C191.719 253.152 191.117 253.367 190.664 253.797C190.211 254.219 189.965 254.789 189.926 255.508ZM209.098 258.777H212.719C212.648 260.254 212.059 261.453 210.949 262.375C209.855 263.281 208.453 263.734 206.742 263.734C204.805 263.734 203.254 263.129 202.09 261.918C200.918 260.699 200.332 259.082 200.332 257.066C200.332 255.082 200.926 253.473 202.113 252.238C203.293 251.012 204.852 250.398 206.789 250.398C208.453 250.398 209.824 250.844 210.902 251.734C211.996 252.617 212.602 253.805 212.719 255.297H209.098C208.996 254.688 208.734 254.223 208.312 253.902C207.891 253.582 207.367 253.422 206.742 253.422C205.852 253.422 205.18 253.742 204.727 254.383C204.281 255.016 204.059 255.918 204.059 257.09C204.059 258.277 204.293 259.184 204.762 259.809C205.23 260.426 205.883 260.734 206.719 260.734C207.383 260.734 207.922 260.559 208.336 260.207C208.758 259.848 209.012 259.371 209.098 258.777ZM227.191 260.289H231.656V263.5H219.398V262.926C219.281 261.293 219.809 259.723 220.98 258.215C221.246 257.855 221.637 257.465 222.152 257.043C222.73 256.566 223.164 256.23 223.453 256.035C223.852 255.738 224.355 255.379 224.965 254.957C225.637 254.488 226.152 254.094 226.512 253.773C226.879 253.445 227.168 253.082 227.379 252.684C227.59 252.277 227.695 251.828 227.695 251.336C227.695 250.656 227.492 250.121 227.086 249.73C226.68 249.34 226.133 249.145 225.445 249.145C224.672 249.145 224.082 249.379 223.676 249.848C223.277 250.316 223.105 250.973 223.16 251.816H219.516C219.469 250.043 220.004 248.633 221.121 247.586C222.238 246.516 223.742 245.98 225.633 245.98C227.414 245.98 228.84 246.469 229.91 247.445C230.98 248.422 231.516 249.727 231.516 251.359C231.516 252.523 231.215 253.551 230.613 254.441C230.02 255.332 229.105 256.215 227.871 257.09C227.691 257.23 227.305 257.496 226.711 257.887L225.492 258.742C225.164 258.977 224.82 259.262 224.461 259.598C224.102 259.926 223.828 260.227 223.641 260.5C224.789 260.359 225.973 260.289 227.191 260.289ZM240.059 263.641C238.051 263.641 236.461 262.859 235.289 261.297C234.117 259.734 233.531 257.559 233.531 254.77C233.531 251.957 234.133 249.789 235.336 248.266C236.539 246.742 238.129 245.98 240.105 245.98C242.113 245.98 243.691 246.758 244.84 248.312C246.004 249.859 246.586 252.027 246.586 254.816C246.586 257.637 245.996 259.82 244.816 261.367C243.645 262.883 242.059 263.641 240.059 263.641ZM240.035 260.453C241.012 260.453 241.711 259.996 242.133 259.082C242.562 258.16 242.777 256.777 242.777 254.934C242.777 252.832 242.543 251.336 242.074 250.445C241.613 249.578 240.949 249.145 240.082 249.145C239.105 249.145 238.406 249.602 237.984 250.516C237.562 251.422 237.352 252.797 237.352 254.641C237.352 256.68 237.574 258.16 238.02 259.082C238.473 259.996 239.145 260.453 240.035 260.453ZM256.371 260.289H260.836V263.5H248.578V262.926C248.461 261.293 248.988 259.723 250.16 258.215C250.426 257.855 250.816 257.465 251.332 257.043C251.91 256.566 252.344 256.23 252.633 256.035C253.031 255.738 253.535 255.379 254.145 254.957C254.816 254.488 255.332 254.094 255.691 253.773C256.059 253.445 256.348 253.082 256.559 252.684C256.77 252.277 256.875 251.828 256.875 251.336C256.875 250.656 256.672 250.121 256.266 249.73C255.859 249.34 255.312 249.145 254.625 249.145C253.852 249.145 253.262 249.379 252.855 249.848C252.457 250.316 252.285 250.973 252.34 251.816H248.695C248.648 250.043 249.184 248.633 250.301 247.586C251.418 246.516 252.922 245.98 254.812 245.98C256.594 245.98 258.02 246.469 259.09 247.445C260.16 248.422 260.695 249.727 260.695 251.359C260.695 252.523 260.395 253.551 259.793 254.441C259.199 255.332 258.285 256.215 257.051 257.09C256.871 257.23 256.484 257.496 255.891 257.887L254.672 258.742C254.344 258.977 254 259.262 253.641 259.598C253.281 259.926 253.008 260.227 252.82 260.5C253.969 260.359 255.152 260.289 256.371 260.289ZM266.941 252.051H262.395V249.273H263.098C264.238 249.273 265.176 248.992 265.91 248.43C266.645 247.867 267.066 247.121 267.176 246.191H270.586V263.5H266.941V252.051Z" fill="#CCCCCC"/>
<path d="M126.352 61.5H122.109L121.102 58.4531H114.305L113.273 61.5H109.266L115.43 44.0039H119.941L126.352 61.5ZM115.98 53.4844L115.312 55.4766H120.117L119.438 53.4844L117.832 48.0586H117.691L115.98 53.4844ZM127.816 65.5078V48.6328H131.004L131.461 50.9883H131.684C132.02 50.1836 132.562 49.5508 133.312 49.0898C134.062 48.6289 134.918 48.3984 135.879 48.3984C137.52 48.3984 138.809 48.9961 139.746 50.1914C140.691 51.3945 141.164 53.0195 141.164 55.0664C141.164 57.1289 140.684 58.7578 139.723 59.9531C138.77 61.1406 137.488 61.7344 135.879 61.7344C134.871 61.7344 133.996 61.5039 133.254 61.043C132.512 60.582 131.988 59.957 131.684 59.168H131.461V65.5078H127.816ZM131.461 54.6562V55.5C131.461 56.4688 131.73 57.25 132.27 57.8438C132.816 58.4375 133.539 58.7344 134.438 58.7344C135.398 58.7344 136.137 58.4062 136.652 57.75C137.176 57.0859 137.438 56.1758 137.438 55.0195C137.438 53.8633 137.176 52.9727 136.652 52.3477C136.129 51.7148 135.406 51.3984 134.484 51.3984C133.586 51.3984 132.855 51.7031 132.293 52.3125C131.738 52.9141 131.461 53.6953 131.461 54.6562ZM147 61.5H143.355V48.6328H146.543L147 51.082H147.152C147.793 49.293 149.121 48.3984 151.137 48.3984V51.5859C149.762 51.5781 148.727 51.9531 148.031 52.7109C147.344 53.4609 147 54.5586 147 56.0039V61.5ZM166.453 55.3125H157.793V53.2969H166.453V55.3125ZM181.254 44.0039V56.168C181.254 59.8633 179.379 61.7109 175.629 61.7109C174.699 61.7109 173.926 61.6406 173.309 61.5V58.3594C173.793 58.4375 174.312 58.4766 174.867 58.4766C175.742 58.4766 176.379 58.2539 176.777 57.8086C177.184 57.3633 177.387 56.6641 177.387 55.7109V44.0039H181.254ZM193.031 48.6328H196.676V61.5H193.488L193.008 59.1445H192.797C192 60.8711 190.605 61.7344 188.613 61.7344C187.223 61.7344 186.16 61.293 185.426 60.4102C184.691 59.5195 184.324 58.2734 184.324 56.6719V48.6328H187.992V56.0977C187.992 57.8555 188.746 58.7344 190.254 58.7344C191.098 58.7344 191.77 58.4336 192.27 57.832C192.777 57.2305 193.031 56.4297 193.031 55.4297V48.6328ZM203.156 61.5H199.512V48.6328H202.723L203.156 51.0117H203.379C204.191 49.2695 205.598 48.3984 207.598 48.3984C209.027 48.3984 210.121 48.875 210.879 49.8281C211.637 50.7812 212.016 52.1055 212.016 53.8008V61.5H208.348V54.1758C208.348 52.3398 207.562 51.4219 205.992 51.4219C205.117 51.4219 204.426 51.7188 203.918 52.3125C203.41 52.9062 203.156 53.7031 203.156 54.7031V61.5ZM227.191 58.2891H231.656V61.5H219.398V60.9258C219.281 59.293 219.809 57.7227 220.98 56.2148C221.246 55.8555 221.637 55.4648 222.152 55.043C222.73 54.5664 223.164 54.2305 223.453 54.0352C223.852 53.7383 224.355 53.3789 224.965 52.957C225.637 52.4883 226.152 52.0938 226.512 51.7734C226.879 51.4453 227.168 51.082 227.379 50.6836C227.59 50.2773 227.695 49.8281 227.695 49.3359C227.695 48.6562 227.492 48.1211 227.086 47.7305C226.68 47.3398 226.133 47.1445 225.445 47.1445C224.672 47.1445 224.082 47.3789 223.676 47.8477C223.277 48.3164 223.105 48.9727 223.16 49.8164H219.516C219.469 48.043 220.004 46.6328 221.121 45.5859C222.238 44.5156 223.742 43.9805 225.633 43.9805C227.414 43.9805 228.84 44.4688 229.91 45.4453C230.98 46.4219 231.516 47.7266 231.516 49.3594C231.516 50.5234 231.215 51.5508 230.613 52.4414C230.02 53.332 229.105 54.2148 227.871 55.0898C227.691 55.2305 227.305 55.4961 226.711 55.8867L225.492 56.7422C225.164 56.9766 224.82 57.2617 224.461 57.5977C224.102 57.9258 223.828 58.2266 223.641 58.5C224.789 58.3594 225.973 58.2891 227.191 58.2891ZM240.059 61.6406C238.051 61.6406 236.461 60.8594 235.289 59.2969C234.117 57.7344 233.531 55.5586 233.531 52.7695C233.531 49.957 234.133 47.7891 235.336 46.2656C236.539 44.7422 238.129 43.9805 240.105 43.9805C242.113 43.9805 243.691 44.7578 244.84 46.3125C246.004 47.8594 246.586 50.0273 246.586 52.8164C246.586 55.6367 245.996 57.8203 244.816 59.3672C243.645 60.8828 242.059 61.6406 240.059 61.6406ZM240.035 58.4531C241.012 58.4531 241.711 57.9961 242.133 57.082C242.562 56.1602 242.777 54.7773 242.777 52.9336C242.777 50.832 242.543 49.3359 242.074 48.4453C241.613 47.5781 240.949 47.1445 240.082 47.1445C239.105 47.1445 238.406 47.6016 237.984 48.5156C237.562 49.4219 237.352 50.7969 237.352 52.6406C237.352 54.6797 237.574 56.1602 238.02 57.082C238.473 57.9961 239.145 58.4531 240.035 58.4531ZM256.371 58.2891H260.836V61.5H248.578V60.9258C248.461 59.293 248.988 57.7227 250.16 56.2148C250.426 55.8555 250.816 55.4648 251.332 55.043C251.91 54.5664 252.344 54.2305 252.633 54.0352C253.031 53.7383 253.535 53.3789 254.145 52.957C254.816 52.4883 255.332 52.0938 255.691 51.7734C256.059 51.4453 256.348 51.082 256.559 50.6836C256.77 50.2773 256.875 49.8281 256.875 49.3359C256.875 48.6562 256.672 48.1211 256.266 47.7305C255.859 47.3398 255.312 47.1445 254.625 47.1445C253.852 47.1445 253.262 47.3789 252.855 47.8477C252.457 48.3164 252.285 48.9727 252.34 49.8164H248.695C248.648 48.043 249.184 46.6328 250.301 45.5859C251.418 44.5156 252.922 43.9805 254.812 43.9805C256.594 43.9805 258.02 44.4688 259.09 45.4453C260.16 46.4219 260.695 47.7266 260.695 49.3594C260.695 50.5234 260.395 51.5508 259.793 52.4414C259.199 53.332 258.285 54.2148 257.051 55.0898C256.871 55.2305 256.484 55.4961 255.891 55.8867L254.672 56.7422C254.344 56.9766 254 57.2617 253.641 57.5977C253.281 57.9258 253.008 58.2266 252.82 58.5C253.969 58.3594 255.152 58.2891 256.371 58.2891ZM266.941 50.0508H262.395V47.2734H263.098C264.238 47.2734 265.176 46.9922 265.91 46.4297C266.645 45.8672 267.066 45.1211 267.176 44.1914H270.586V61.5H266.941V50.0508Z" fill="#CCCCCC"/>
<path d="M106.207 364.5H102.422V347.004H107.238L111.516 356.777H111.68L115.91 347.004H120.727V364.5H116.965V357.129L117.199 352.336H117.035L111.609 364.23L106.16 352.336H105.973L106.207 357.176V364.5ZM123.176 360.973C123.176 359.676 123.641 358.652 124.57 357.902C125.508 357.152 126.766 356.777 128.344 356.777H131.285V356.027C131.285 355.434 131.113 354.98 130.77 354.668C130.426 354.355 129.953 354.199 129.352 354.199C128.75 354.199 128.262 354.344 127.887 354.633C127.52 354.922 127.316 355.309 127.277 355.793H123.703C123.805 354.449 124.379 353.383 125.426 352.594C126.48 351.797 127.828 351.398 129.469 351.398C131.234 351.398 132.586 351.816 133.523 352.652C134.469 353.488 134.941 354.652 134.941 356.145V361.16C134.941 361.707 135.148 361.98 135.562 361.98C135.68 361.98 135.816 361.965 135.973 361.934V364.477C135.355 364.617 134.754 364.688 134.168 364.688C132.473 364.688 131.578 363.977 131.484 362.555H131.285C131.059 363.227 130.59 363.758 129.879 364.148C129.176 364.539 128.336 364.734 127.359 364.734C126.078 364.734 125.059 364.398 124.301 363.727C123.551 363.047 123.176 362.129 123.176 360.973ZM126.879 360.516C126.879 360.977 127.035 361.336 127.348 361.594C127.668 361.852 128.102 361.98 128.648 361.98C129.453 361.98 130.094 361.746 130.57 361.277C131.047 360.809 131.285 360.188 131.285 359.414V358.98H128.941C127.566 358.98 126.879 359.492 126.879 360.516ZM140.637 363.68L135.867 351.633H139.793L141.305 356.555L142.371 360.199H142.535L143.543 356.555L144.984 351.633H148.793L144.234 364.734C143.758 366.117 143.039 367.129 142.078 367.77C141.125 368.418 139.875 368.742 138.328 368.742C137.719 368.742 137.176 368.695 136.699 368.602V365.648C137.066 365.711 137.508 365.742 138.023 365.742C139.352 365.742 140.16 365.25 140.449 364.266L140.637 363.68ZM163.805 358.312H155.145V356.297H163.805V358.312ZM178.605 347.004V359.168C178.605 362.863 176.73 364.711 172.98 364.711C172.051 364.711 171.277 364.641 170.66 364.5V361.359C171.145 361.438 171.664 361.477 172.219 361.477C173.094 361.477 173.73 361.254 174.129 360.809C174.535 360.363 174.738 359.664 174.738 358.711V347.004H178.605ZM190.383 351.633H194.027V364.5H190.84L190.359 362.145H190.148C189.352 363.871 187.957 364.734 185.965 364.734C184.574 364.734 183.512 364.293 182.777 363.41C182.043 362.52 181.676 361.273 181.676 359.672V351.633H185.344V359.098C185.344 360.855 186.098 361.734 187.605 361.734C188.449 361.734 189.121 361.434 189.621 360.832C190.129 360.23 190.383 359.43 190.383 358.43V351.633ZM200.508 364.5H196.863V351.633H200.074L200.508 354.012H200.73C201.543 352.27 202.949 351.398 204.949 351.398C206.379 351.398 207.473 351.875 208.23 352.828C208.988 353.781 209.367 355.105 209.367 356.801V364.5H205.699V357.176C205.699 355.34 204.914 354.422 203.344 354.422C202.469 354.422 201.777 354.719 201.27 355.312C200.762 355.906 200.508 356.703 200.508 357.703V364.5ZM224.543 361.289H229.008V364.5H216.75V363.926C216.633 362.293 217.16 360.723 218.332 359.215C218.598 358.855 218.988 358.465 219.504 358.043C220.082 357.566 220.516 357.23 220.805 357.035C221.203 356.738 221.707 356.379 222.316 355.957C222.988 355.488 223.504 355.094 223.863 354.773C224.23 354.445 224.52 354.082 224.73 353.684C224.941 353.277 225.047 352.828 225.047 352.336C225.047 351.656 224.844 351.121 224.438 350.73C224.031 350.34 223.484 350.145 222.797 350.145C222.023 350.145 221.434 350.379 221.027 350.848C220.629 351.316 220.457 351.973 220.512 352.816H216.867C216.82 351.043 217.355 349.633 218.473 348.586C219.59 347.516 221.094 346.98 222.984 346.98C224.766 346.98 226.191 347.469 227.262 348.445C228.332 349.422 228.867 350.727 228.867 352.359C228.867 353.523 228.566 354.551 227.965 355.441C227.371 356.332 226.457 357.215 225.223 358.09C225.043 358.23 224.656 358.496 224.062 358.887L222.844 359.742C222.516 359.977 222.172 360.262 221.812 360.598C221.453 360.926 221.18 361.227 220.992 361.5C222.141 361.359 223.324 361.289 224.543 361.289ZM237.41 364.641C235.402 364.641 233.812 363.859 232.641 362.297C231.469 360.734 230.883 358.559 230.883 355.77C230.883 352.957 231.484 350.789 232.688 349.266C233.891 347.742 235.48 346.98 237.457 346.98C239.465 346.98 241.043 347.758 242.191 349.312C243.355 350.859 243.938 353.027 243.938 355.816C243.938 358.637 243.348 360.82 242.168 362.367C240.996 363.883 239.41 364.641 237.41 364.641ZM237.387 361.453C238.363 361.453 239.062 360.996 239.484 360.082C239.914 359.16 240.129 357.777 240.129 355.934C240.129 353.832 239.895 352.336 239.426 351.445C238.965 350.578 238.301 350.145 237.434 350.145C236.457 350.145 235.758 350.602 235.336 351.516C234.914 352.422 234.703 353.797 234.703 355.641C234.703 357.68 234.926 359.16 235.371 360.082C235.824 360.996 236.496 361.453 237.387 361.453ZM253.723 361.289H258.188V364.5H245.93V363.926C245.812 362.293 246.34 360.723 247.512 359.215C247.777 358.855 248.168 358.465 248.684 358.043C249.262 357.566 249.695 357.23 249.984 357.035C250.383 356.738 250.887 356.379 251.496 355.957C252.168 355.488 252.684 355.094 253.043 354.773C253.41 354.445 253.699 354.082 253.91 353.684C254.121 353.277 254.227 352.828 254.227 352.336C254.227 351.656 254.023 351.121 253.617 350.73C253.211 350.34 252.664 350.145 251.977 350.145C251.203 350.145 250.613 350.379 250.207 350.848C249.809 351.316 249.637 351.973 249.691 352.816H246.047C246 351.043 246.535 349.633 247.652 348.586C248.77 347.516 250.273 346.98 252.164 346.98C253.945 346.98 255.371 347.469 256.441 348.445C257.512 349.422 258.047 350.727 258.047 352.359C258.047 353.523 257.746 354.551 257.145 355.441C256.551 356.332 255.637 357.215 254.402 358.09C254.223 358.23 253.836 358.496 253.242 358.887L252.023 359.742C251.695 359.977 251.352 360.262 250.992 360.598C250.633 360.926 250.359 361.227 250.172 361.5C251.32 361.359 252.504 361.289 253.723 361.289ZM267.715 361.289H272.18V364.5H259.922V363.926C259.805 362.293 260.332 360.723 261.504 359.215C261.77 358.855 262.16 358.465 262.676 358.043C263.254 357.566 263.688 357.23 263.977 357.035C264.375 356.738 264.879 356.379 265.488 355.957C266.16 355.488 266.676 355.094 267.035 354.773C267.402 354.445 267.691 354.082 267.902 353.684C268.113 353.277 268.219 352.828 268.219 352.336C268.219 351.656 268.016 351.121 267.609 350.73C267.203 350.34 266.656 350.145 265.969 350.145C265.195 350.145 264.605 350.379 264.199 350.848C263.801 351.316 263.629 351.973 263.684 352.816H260.039C259.992 351.043 260.527 349.633 261.645 348.586C262.762 347.516 264.266 346.98 266.156 346.98C267.938 346.98 269.363 347.469 270.434 348.445C271.504 349.422 272.039 350.727 272.039 352.359C272.039 353.523 271.738 354.551 271.137 355.441C270.543 356.332 269.629 357.215 268.395 358.09C268.215 358.23 267.828 358.496 267.234 358.887L266.016 359.742C265.688 359.977 265.344 360.262 264.984 360.598C264.625 360.926 264.352 361.227 264.164 361.5C265.312 361.359 266.496 361.289 267.715 361.289Z" fill="#CCCCCC"/>
<path d="M104.637 448.004V460.168C104.637 463.863 102.762 465.711 99.0117 465.711C98.082 465.711 97.3086 465.641 96.6914 465.5V462.359C97.1758 462.438 97.6953 462.477 98.25 462.477C99.125 462.477 99.7617 462.254 100.16 461.809C100.566 461.363 100.77 460.664 100.77 459.711V448.004H104.637ZM116.414 452.633H120.059V465.5H116.871L116.391 463.145H116.18C115.383 464.871 113.988 465.734 111.996 465.734C110.605 465.734 109.543 465.293 108.809 464.41C108.074 463.52 107.707 462.273 107.707 460.672V452.633H111.375V460.098C111.375 461.855 112.129 462.734 113.637 462.734C114.48 462.734 115.152 462.434 115.652 461.832C116.16 461.23 116.414 460.43 116.414 459.43V452.633ZM126.539 465.5H122.895V452.633H126.105L126.539 455.012H126.762C127.574 453.27 128.98 452.398 130.98 452.398C132.41 452.398 133.504 452.875 134.262 453.828C135.02 454.781 135.398 456.105 135.398 457.801V465.5H131.73V458.176C131.73 456.34 130.945 455.422 129.375 455.422C128.5 455.422 127.809 455.719 127.301 456.312C126.793 456.906 126.539 457.703 126.539 458.703V465.5ZM150.574 462.289H155.039V465.5H142.781V464.926C142.664 463.293 143.191 461.723 144.363 460.215C144.629 459.855 145.02 459.465 145.535 459.043C146.113 458.566 146.547 458.23 146.836 458.035C147.234 457.738 147.738 457.379 148.348 456.957C149.02 456.488 149.535 456.094 149.895 455.773C150.262 455.445 150.551 455.082 150.762 454.684C150.973 454.277 151.078 453.828 151.078 453.336C151.078 452.656 150.875 452.121 150.469 451.73C150.062 451.34 149.516 451.145 148.828 451.145C148.055 451.145 147.465 451.379 147.059 451.848C146.66 452.316 146.488 452.973 146.543 453.816H142.898C142.852 452.043 143.387 450.633 144.504 449.586C145.621 448.516 147.125 447.98 149.016 447.98C150.797 447.98 152.223 448.469 153.293 449.445C154.363 450.422 154.898 451.727 154.898 453.359C154.898 454.523 154.598 455.551 153.996 456.441C153.402 457.332 152.488 458.215 151.254 459.09C151.074 459.23 150.688 459.496 150.094 459.887L148.875 460.742C148.547 460.977 148.203 461.262 147.844 461.598C147.484 461.926 147.211 462.227 147.023 462.5C148.172 462.359 149.355 462.289 150.574 462.289ZM163.441 465.641C161.434 465.641 159.844 464.859 158.672 463.297C157.5 461.734 156.914 459.559 156.914 456.77C156.914 453.957 157.516 451.789 158.719 450.266C159.922 448.742 161.512 447.98 163.488 447.98C165.496 447.98 167.074 448.758 168.223 450.312C169.387 451.859 169.969 454.027 169.969 456.816C169.969 459.637 169.379 461.82 168.199 463.367C167.027 464.883 165.441 465.641 163.441 465.641ZM163.418 462.453C164.395 462.453 165.094 461.996 165.516 461.082C165.945 460.16 166.16 458.777 166.16 456.934C166.16 454.832 165.926 453.336 165.457 452.445C164.996 451.578 164.332 451.145 163.465 451.145C162.488 451.145 161.789 451.602 161.367 452.516C160.945 453.422 160.734 454.797 160.734 456.641C160.734 458.68 160.957 460.16 161.402 461.082C161.855 461.996 162.527 462.453 163.418 462.453ZM179.754 462.289H184.219V465.5H171.961V464.926C171.844 463.293 172.371 461.723 173.543 460.215C173.809 459.855 174.199 459.465 174.715 459.043C175.293 458.566 175.727 458.23 176.016 458.035C176.414 457.738 176.918 457.379 177.527 456.957C178.199 456.488 178.715 456.094 179.074 455.773C179.441 455.445 179.73 455.082 179.941 454.684C180.152 454.277 180.258 453.828 180.258 453.336C180.258 452.656 180.055 452.121 179.648 451.73C179.242 451.34 178.695 451.145 178.008 451.145C177.234 451.145 176.645 451.379 176.238 451.848C175.84 452.316 175.668 452.973 175.723 453.816H172.078C172.031 452.043 172.566 450.633 173.684 449.586C174.801 448.516 176.305 447.98 178.195 447.98C179.977 447.98 181.402 448.469 182.473 449.445C183.543 450.422 184.078 451.727 184.078 453.359C184.078 454.523 183.777 455.551 183.176 456.441C182.582 457.332 181.668 458.215 180.434 459.09C180.254 459.23 179.867 459.496 179.273 459.887L178.055 460.742C177.727 460.977 177.383 461.262 177.023 461.598C176.664 461.926 176.391 462.227 176.203 462.5C177.352 462.359 178.535 462.289 179.754 462.289ZM193.746 462.289H198.211V465.5H185.953V464.926C185.836 463.293 186.363 461.723 187.535 460.215C187.801 459.855 188.191 459.465 188.707 459.043C189.285 458.566 189.719 458.23 190.008 458.035C190.406 457.738 190.91 457.379 191.52 456.957C192.191 456.488 192.707 456.094 193.066 455.773C193.434 455.445 193.723 455.082 193.934 454.684C194.145 454.277 194.25 453.828 194.25 453.336C194.25 452.656 194.047 452.121 193.641 451.73C193.234 451.34 192.688 451.145 192 451.145C191.227 451.145 190.637 451.379 190.23 451.848C189.832 452.316 189.66 452.973 189.715 453.816H186.07C186.023 452.043 186.559 450.633 187.676 449.586C188.793 448.516 190.297 447.98 192.188 447.98C193.969 447.98 195.395 448.469 196.465 449.445C197.535 450.422 198.07 451.727 198.07 453.359C198.07 454.523 197.77 455.551 197.168 456.441C196.574 457.332 195.66 458.215 194.426 459.09C194.246 459.23 193.859 459.496 193.266 459.887L192.047 460.742C191.719 460.977 191.375 461.262 191.016 461.598C190.656 461.926 190.383 462.227 190.195 462.5C191.344 462.359 192.527 462.289 193.746 462.289ZM214.172 459.312H205.512V457.297H214.172V459.312ZM226.395 465.5H222.516V448.004H227.004L234.059 460.074H234.199L233.988 455.059V448.004H237.82V465.5H233.332L226.324 453.523H226.16L226.395 458.352V465.5ZM246.82 452.398C248.75 452.398 250.305 453.023 251.484 454.273C252.664 455.5 253.254 457.105 253.254 459.09C253.254 461.066 252.664 462.668 251.484 463.895C250.32 465.105 248.766 465.711 246.82 465.711C244.867 465.711 243.309 465.105 242.145 463.895C240.957 462.66 240.363 461.051 240.363 459.066C240.363 457.082 240.957 455.473 242.145 454.238C243.324 453.012 244.883 452.398 246.82 452.398ZM244.09 459.066C244.09 460.199 244.332 461.09 244.816 461.738C245.309 462.387 245.969 462.711 246.797 462.711C247.641 462.711 248.305 462.383 248.789 461.727C249.273 461.062 249.516 460.168 249.516 459.043C249.516 457.926 249.273 457.043 248.789 456.395C248.305 455.746 247.633 455.422 246.773 455.422C245.953 455.422 245.301 455.754 244.816 456.418C244.332 457.074 244.09 457.957 244.09 459.066ZM268.055 458.035L269.262 452.633H272.859L269.566 465.5H265.078L264 460.051L263.473 457.273H263.332L262.852 460.027L261.773 465.5H257.355L254.062 452.633H257.684L258.82 457.965L259.559 461.855H259.781L261.457 452.633H265.512L267.164 461.879H267.34L268.055 458.035Z" fill="#CCCCCC"/>
<path d="M114.645 145.004V157.168C114.645 160.863 112.77 162.711 109.02 162.711C108.09 162.711 107.316 162.641 106.699 162.5V159.359C107.184 159.438 107.703 159.477 108.258 159.477C109.133 159.477 109.77 159.254 110.168 158.809C110.574 158.363 110.777 157.664 110.777 156.711V145.004H114.645ZM126.422 149.633H130.066V162.5H126.879L126.398 160.145H126.188C125.391 161.871 123.996 162.734 122.004 162.734C120.613 162.734 119.551 162.293 118.816 161.41C118.082 160.52 117.715 159.273 117.715 157.672V149.633H121.383V157.098C121.383 158.855 122.137 159.734 123.645 159.734C124.488 159.734 125.16 159.434 125.66 158.832C126.168 158.23 126.422 157.43 126.422 156.43V149.633ZM136.547 162.5H132.902V149.633H136.113L136.547 152.012H136.77C137.582 150.27 138.988 149.398 140.988 149.398C142.418 149.398 143.512 149.875 144.27 150.828C145.027 151.781 145.406 153.105 145.406 154.801V162.5H141.738V155.176C141.738 153.34 140.953 152.422 139.383 152.422C138.508 152.422 137.816 152.719 137.309 153.312C136.801 153.906 136.547 154.703 136.547 155.703V162.5ZM161.883 156.312H153.223V154.297H161.883V156.312ZM185.438 162.5H181.195L180.188 159.453H173.391L172.359 162.5H168.352L174.516 145.004H179.027L185.438 162.5ZM175.066 154.484L174.398 156.477H179.203L178.523 154.484L176.918 149.059H176.777L175.066 154.484ZM194.93 149.633H198.574V162.5H195.387L194.906 160.145H194.695C193.898 161.871 192.504 162.734 190.512 162.734C189.121 162.734 188.059 162.293 187.324 161.41C186.59 160.52 186.223 159.273 186.223 157.672V149.633H189.891V157.098C189.891 158.855 190.645 159.734 192.152 159.734C192.996 159.734 193.668 159.434 194.168 158.832C194.676 158.23 194.93 157.43 194.93 156.43V149.633ZM200.309 164.012C200.309 163.426 200.488 162.914 200.848 162.477C201.215 162.031 201.691 161.734 202.277 161.586V161.398C201.832 161.242 201.48 160.992 201.223 160.648C200.965 160.305 200.836 159.914 200.836 159.477C200.836 158.922 201.004 158.441 201.34 158.035C201.676 157.621 202.141 157.316 202.734 157.121V156.934C201.438 156.223 200.789 155.109 200.789 153.594C200.789 152.336 201.27 151.32 202.23 150.547C203.207 149.781 204.469 149.398 206.016 149.398C206.867 149.398 207.547 149.5 208.055 149.703C208.305 148.898 208.824 148.25 209.613 147.758C210.402 147.266 211.324 147.02 212.379 147.02V149.809C211.207 149.809 210.453 150.094 210.117 150.664C211.062 151.406 211.535 152.422 211.535 153.711C211.535 154.945 211.062 155.953 210.117 156.734C209.156 157.492 207.91 157.871 206.379 157.871C205.84 157.871 205.32 157.812 204.82 157.695C204.367 157.836 204.141 158.117 204.141 158.539C204.141 159.117 204.664 159.406 205.711 159.406H208.582C209.949 159.406 211.008 159.73 211.758 160.379C212.508 161.02 212.883 161.902 212.883 163.027C212.883 165.73 210.594 167.082 206.016 167.082C204.133 167.082 202.711 166.812 201.75 166.273C200.789 165.742 200.309 164.988 200.309 164.012ZM206.191 155.375C206.746 155.375 207.188 155.215 207.516 154.895C207.844 154.574 208.008 154.148 208.008 153.617C208.008 153.094 207.84 152.676 207.504 152.363C207.176 152.051 206.738 151.895 206.191 151.895C205.629 151.895 205.184 152.051 204.855 152.363C204.527 152.668 204.363 153.086 204.363 153.617C204.363 154.141 204.531 154.566 204.867 154.895C205.211 155.215 205.652 155.375 206.191 155.375ZM203.695 163.297C203.695 164.109 204.535 164.516 206.215 164.516C208.246 164.516 209.262 164.066 209.262 163.168C209.262 162.543 208.844 162.23 208.008 162.23H205.125C204.172 162.23 203.695 162.586 203.695 163.297ZM227.191 159.289H231.656V162.5H219.398V161.926C219.281 160.293 219.809 158.723 220.98 157.215C221.246 156.855 221.637 156.465 222.152 156.043C222.73 155.566 223.164 155.23 223.453 155.035C223.852 154.738 224.355 154.379 224.965 153.957C225.637 153.488 226.152 153.094 226.512 152.773C226.879 152.445 227.168 152.082 227.379 151.684C227.59 151.277 227.695 150.828 227.695 150.336C227.695 149.656 227.492 149.121 227.086 148.73C226.68 148.34 226.133 148.145 225.445 148.145C224.672 148.145 224.082 148.379 223.676 148.848C223.277 149.316 223.105 149.973 223.16 150.816H219.516C219.469 149.043 220.004 147.633 221.121 146.586C222.238 145.516 223.742 144.98 225.633 144.98C227.414 144.98 228.84 145.469 229.91 146.445C230.98 147.422 231.516 148.727 231.516 150.359C231.516 151.523 231.215 152.551 230.613 153.441C230.02 154.332 229.105 155.215 227.871 156.09C227.691 156.23 227.305 156.496 226.711 156.887L225.492 157.742C225.164 157.977 224.82 158.262 224.461 158.598C224.102 158.926 223.828 159.227 223.641 159.5C224.789 159.359 225.973 159.289 227.191 159.289ZM240.059 162.641C238.051 162.641 236.461 161.859 235.289 160.297C234.117 158.734 233.531 156.559 233.531 153.77C233.531 150.957 234.133 148.789 235.336 147.266C236.539 145.742 238.129 144.98 240.105 144.98C242.113 144.98 243.691 145.758 244.84 147.312C246.004 148.859 246.586 151.027 246.586 153.816C246.586 156.637 245.996 158.82 244.816 160.367C243.645 161.883 242.059 162.641 240.059 162.641ZM240.035 159.453C241.012 159.453 241.711 158.996 242.133 158.082C242.562 157.16 242.777 155.777 242.777 153.934C242.777 151.832 242.543 150.336 242.074 149.445C241.613 148.578 240.949 148.145 240.082 148.145C239.105 148.145 238.406 148.602 237.984 149.516C237.562 150.422 237.352 151.797 237.352 153.641C237.352 155.68 237.574 157.16 238.02 158.082C238.473 158.996 239.145 159.453 240.035 159.453ZM256.371 159.289H260.836V162.5H248.578V161.926C248.461 160.293 248.988 158.723 250.16 157.215C250.426 156.855 250.816 156.465 251.332 156.043C251.91 155.566 252.344 155.23 252.633 155.035C253.031 154.738 253.535 154.379 254.145 153.957C254.816 153.488 255.332 153.094 255.691 152.773C256.059 152.445 256.348 152.082 256.559 151.684C256.77 151.277 256.875 150.828 256.875 150.336C256.875 149.656 256.672 149.121 256.266 148.73C255.859 148.34 255.312 148.145 254.625 148.145C253.852 148.145 253.262 148.379 252.855 148.848C252.457 149.316 252.285 149.973 252.34 150.816H248.695C248.648 149.043 249.184 147.633 250.301 146.586C251.418 145.516 252.922 144.98 254.812 144.98C256.594 144.98 258.02 145.469 259.09 146.445C260.16 147.422 260.695 148.727 260.695 150.359C260.695 151.523 260.395 152.551 259.793 153.441C259.199 154.332 258.285 155.215 257.051 156.09C256.871 156.23 256.484 156.496 255.891 156.887L254.672 157.742C254.344 157.977 254 158.262 253.641 158.598C253.281 158.926 253.008 159.227 252.82 159.5C253.969 159.359 255.152 159.289 256.371 159.289ZM266.941 151.051H262.395V148.273H263.098C264.238 148.273 265.176 147.992 265.91 147.43C266.645 146.867 267.066 146.121 267.176 145.191H270.586V162.5H266.941V151.051Z" fill="url(#paint1_linear_245_136)"/>
<defs>
<linearGradient id="paint0_linear_245_136" x1="285" y1="144.118" x2="307" y2="164.118" gradientUnits="userSpaceOnUse">
<stop stop-color="#0055FF"/>
<stop offset="1" stop-color="#9E00FF"/>
</linearGradient>
<linearGradient id="paint1_linear_245_136" x1="110.5" y1="139.5" x2="270.273" y2="183.934" gradientUnits="userSpaceOnUse">
<stop stop-color="#0055FF"/>
<stop offset="1" stop-color="#9E00FF"/>
</linearGradient>
</defs>
</svg>
