<svg width="59" height="59" viewBox="0 0 59 59" fill="none" xmlns="http://www.w3.org/2000/svg">
<path d="M29.5 0C13.2111 0 0 13.2086 0 29.5C0 42.5341 8.45175 53.5917 20.1755 57.493C21.6481 57.7659 22.125 56.8514 22.125 56.0746V50.5827C13.9191 52.3674 12.2105 47.1017 12.2105 47.1017C10.8683 43.692 8.93358 42.7848 8.93358 42.7848C6.25646 40.9534 9.13762 40.9927 9.13762 40.9927C12.0999 41.1992 13.6585 44.0337 13.6585 44.0337C16.2889 48.5423 20.559 47.2393 22.243 46.4846C22.506 44.5794 23.2706 43.2765 24.1163 42.5415C17.5648 41.7917 10.6765 39.262 10.6765 27.9611C10.6765 24.7382 11.8295 22.1078 13.715 20.0428C13.4102 19.2979 12.3998 16.2963 14.0027 12.2351C14.0027 12.2351 16.4807 11.4435 22.1176 15.2589C24.4702 14.605 26.9925 14.278 29.5 14.2657C32.0075 14.278 34.5322 14.605 36.8897 15.2589C42.5218 11.4435 44.9949 12.2351 44.9949 12.2351C46.6002 16.2987 45.5898 19.3004 45.285 20.0428C47.1779 22.1078 48.321 24.7407 48.321 27.9611C48.321 39.2915 41.4205 41.7867 34.8518 42.5169C35.9089 43.4314 36.875 45.226 36.875 47.9793V56.0746C36.875 56.8588 37.347 57.7807 38.8441 57.4906C50.5581 53.5843 59 42.5292 59 29.5C59 13.2086 45.7914 0 29.5 0Z" fill="#040D21" fill-opacity="0.5"/>
</svg>
