<svg width="71" height="61" viewBox="0 0 71 61" fill="none" xmlns="http://www.w3.org/2000/svg">
<path d="M55.4179 36.836V49.2901C55.4179 52.3777 54.3251 55.0177 52.1395 57.2101C49.9538 59.4025 47.322 60.4987 44.244 60.4987H11.9637C8.88569 60.4987 6.25389 59.4025 4.06819 57.2101C1.88259 55.0177 0.789795 52.3777 0.789795 49.2901V16.9095C0.789795 13.822 1.88259 11.182 4.06819 8.98947C6.25389 6.79707 8.88569 5.70087 11.9637 5.70087H39.2778C39.6399 5.70087 39.9374 5.81767 40.1702 6.05117C40.4029 6.28467 40.5193 6.58307 40.5193 6.94627V9.43707C40.5193 9.80037 40.4029 10.0987 40.1702 10.3322C39.9374 10.5658 39.6399 10.6825 39.2778 10.6825H11.9637C10.2566 10.6825 8.7952 11.2922 7.5795 12.5117C6.3638 13.7312 5.75599 15.1971 5.75599 16.9095V49.2901C5.75599 51.0025 6.3638 52.4685 7.5795 53.6879C8.7952 54.9074 10.2566 55.5171 11.9637 55.5171H44.244C45.9511 55.5171 47.4125 54.9074 48.6282 53.6879C49.8439 52.4685 50.4517 51.0025 50.4517 49.2901V36.836C50.4517 36.4728 50.5681 36.1744 50.8009 35.9409C51.0337 35.7074 51.3312 35.5906 51.6933 35.5906H54.1764C54.5385 35.5906 54.836 35.7074 55.0687 35.9409C55.3015 36.1744 55.4179 36.4728 55.4179 36.836ZM70.3169 3.21005V23.1366C70.3169 23.8112 70.0709 24.3949 69.5794 24.8879C69.0879 25.3809 68.5059 25.6274 67.8334 25.6274C67.1609 25.6274 66.5789 25.3809 66.0875 24.8879L59.259 18.0382L33.9624 43.4133C33.7037 43.6728 33.4063 43.8025 33.07 43.8025C32.7338 43.8025 32.4363 43.6728 32.1777 43.4133L27.7547 38.9766C27.496 38.7171 27.3667 38.4187 27.3667 38.0814C27.3667 37.7441 27.496 37.4458 27.7547 37.1863L53.0512 11.8112L46.2227 4.96141C45.7313 4.46843 45.4855 3.88465 45.4855 3.21005C45.4855 2.53546 45.7313 1.95168 46.2227 1.4587C46.7142 0.965728 47.2961 0.719238 47.9686 0.719238H67.8334C68.5059 0.719238 69.0879 0.965728 69.5794 1.4587C70.0709 1.95168 70.3169 2.53546 70.3169 3.21005Z" fill="#040D21" fill-opacity="0.5"/>
</svg>
